<mxfile host="app.diagrams.net" modified="2022-11-02T13:16:25.984Z" agent="5.0 (Windows NT 10.0; WOW64) AppleWebKit/537.36 (KHTML, like Gecko) Chrome/106.0.0.0 Safari/537.36" etag="RNn4MBnzV6_1suDy990r" version="20.5.1" type="github">
  <diagram id="r3sxDyT0fpC5JQOG2hrh" name="第 1 页">
    <mxGraphModel dx="1185" dy="628" grid="1" gridSize="10" guides="1" tooltips="1" connect="1" arrows="1" fold="1" page="1" pageScale="1" pageWidth="3000" pageHeight="3000" math="0" shadow="0">
      <root>
        <mxCell id="0" />
        <mxCell id="1" parent="0" />
        <mxCell id="dBfdr0uVigZmpY6Dn77D-5" value="" style="rounded=0;whiteSpace=wrap;html=1;" vertex="1" parent="1">
          <mxGeometry x="270" y="220" width="1020" height="400" as="geometry" />
        </mxCell>
        <mxCell id="dBfdr0uVigZmpY6Dn77D-6" value="" style="endArrow=none;dashed=1;html=1;rounded=0;exitX=0;exitY=0.25;exitDx=0;exitDy=0;entryX=1;entryY=0.25;entryDx=0;entryDy=0;" edge="1" parent="1" source="dBfdr0uVigZmpY6Dn77D-5" target="dBfdr0uVigZmpY6Dn77D-5">
          <mxGeometry width="50" height="50" relative="1" as="geometry">
            <mxPoint x="250" y="300" as="sourcePoint" />
            <mxPoint x="1280" y="280" as="targetPoint" />
          </mxGeometry>
        </mxCell>
        <mxCell id="dBfdr0uVigZmpY6Dn77D-7" value="UI层&lt;br&gt;" style="text;html=1;strokeColor=none;fillColor=none;align=center;verticalAlign=middle;whiteSpace=wrap;rounded=0;" vertex="1" parent="1">
          <mxGeometry x="280" y="260" width="60" height="30" as="geometry" />
        </mxCell>
        <mxCell id="dBfdr0uVigZmpY6Dn77D-8" value="拓扑展示" style="rounded=0;whiteSpace=wrap;html=1;" vertex="1" parent="1">
          <mxGeometry x="440" y="240" width="120" height="60" as="geometry" />
        </mxCell>
        <mxCell id="dBfdr0uVigZmpY6Dn77D-9" value="拓扑交互" style="rounded=0;whiteSpace=wrap;html=1;" vertex="1" parent="1">
          <mxGeometry x="710" y="240" width="120" height="60" as="geometry" />
        </mxCell>
        <mxCell id="dBfdr0uVigZmpY6Dn77D-10" value="Kubernetes管理" style="rounded=0;whiteSpace=wrap;html=1;" vertex="1" parent="1">
          <mxGeometry x="1030" y="240" width="120" height="60" as="geometry" />
        </mxCell>
        <mxCell id="dBfdr0uVigZmpY6Dn77D-11" value="" style="endArrow=none;dashed=1;html=1;rounded=0;exitX=0;exitY=0.25;exitDx=0;exitDy=0;entryX=1;entryY=0.25;entryDx=0;entryDy=0;" edge="1" parent="1">
          <mxGeometry width="50" height="50" relative="1" as="geometry">
            <mxPoint x="270" y="520" as="sourcePoint" />
            <mxPoint x="1290" y="520" as="targetPoint" />
          </mxGeometry>
        </mxCell>
        <mxCell id="dBfdr0uVigZmpY6Dn77D-12" value="业务层" style="text;html=1;strokeColor=none;fillColor=none;align=center;verticalAlign=middle;whiteSpace=wrap;rounded=0;" vertex="1" parent="1">
          <mxGeometry x="280" y="400" width="60" height="30" as="geometry" />
        </mxCell>
        <mxCell id="dBfdr0uVigZmpY6Dn77D-13" value="" style="rounded=0;whiteSpace=wrap;html=1;" vertex="1" parent="1">
          <mxGeometry x="370" y="352.5" width="230" height="125" as="geometry" />
        </mxCell>
        <mxCell id="dBfdr0uVigZmpY6Dn77D-15" value="&lt;br&gt;&lt;span style=&quot;color: rgb(0, 0, 0); font-family: Helvetica; font-size: 12px; font-style: normal; font-variant-ligatures: normal; font-variant-caps: normal; font-weight: 400; letter-spacing: normal; orphans: 2; text-align: center; text-indent: 0px; text-transform: none; widows: 2; word-spacing: 0px; -webkit-text-stroke-width: 0px; background-color: rgb(248, 249, 250); text-decoration-thickness: initial; text-decoration-style: initial; text-decoration-color: initial; float: none; display: inline !important;&quot;&gt;可视化拓扑布局模块&lt;/span&gt;&lt;br&gt;" style="text;html=1;strokeColor=none;fillColor=none;align=center;verticalAlign=middle;whiteSpace=wrap;rounded=0;" vertex="1" parent="1">
          <mxGeometry x="405" y="357.5" width="110" height="10" as="geometry" />
        </mxCell>
        <mxCell id="dBfdr0uVigZmpY6Dn77D-16" value="力导引层级布局" style="rounded=0;whiteSpace=wrap;html=1;" vertex="1" parent="1">
          <mxGeometry x="380" y="392.5" width="95" height="40" as="geometry" />
        </mxCell>
        <mxCell id="dBfdr0uVigZmpY6Dn77D-17" value="双平面布局" style="rounded=0;whiteSpace=wrap;html=1;" vertex="1" parent="1">
          <mxGeometry x="490" y="391" width="90" height="43" as="geometry" />
        </mxCell>
      </root>
    </mxGraphModel>
  </diagram>
</mxfile>
